# xmcd
#
# Track frame offsets: 
#        150
#        9359
#        48076
#        78901
#        93766
#        117820
#        136711
#        165084
#        192913
#        211986
#        236757
#        254478
#        278903
#        310729
#        329648
#
# Disc length: 4412 seconds
#
# Revision: 7
# Processed by: cddbd v1.5.2PL0 Copyright (c) Steve Scherf et al.
# Submitted via: ExactAudioCopy v0.99pb3
#
DISCID=ba113a0f
DTITLE=Dan Brown - Angels And Demons [CD13)
DYEAR=2000
DGENRE=Audio Book
TTITLE0=AngelsAndDemons-112B
TTITLE1=AngelsAndDemons-113
TTITLE2=AngelsAndDemons-114
TTITLE3=AngelsAndDemons-115
TTITLE4=AngelsAndDemons-116
TTITLE5=AngelsAndDemons-117
TTITLE6=AngelsAndDemons-118A
TTITLE7=AngelsAndDemons-118B
TTITLE8=AngelsAndDemons-119A
TTITLE9=AngelsAndDemons-119B
TTITLE10=AngelsAndDemons-120A
TTITLE11=AngelsAndDemons-120B
TTITLE12=AngelsAndDemons-121
TTITLE13=AngelsAndDemons-122
TTITLE14=Silent Track
EXTD=YEAR: 2000
EXTT0=
EXTT1=
EXTT2=
EXTT3=
EXTT4=
EXTT5=
EXTT6=
EXTT7=
EXTT8=
EXTT9=
EXTT10=
EXTT11=
EXTT12=
EXTT13=
EXTT14=
PLAYORDER=
